<svg viewBox="0 0 80 81">
    <path
        d="M51.173 24.031h-20.9a1.209 1.209 0 0 1-1.145-1.211 1.214 1.214 0 0 1 1.145-1.212h20.9a1.208 1.208 0 0 1 1.275 1.212 1.217 1.217 0 0 1-.793 1.139 1.206 1.206 0 0 1-.482.072Zm-34.146 0h6.8a1.209 1.209 0 0 0 1.145-1.211 1.214 1.214 0 0 0-1.144-1.212h-6.801a1.209 1.209 0 0 0-1.145 1.212 1.215 1.215 0 0 0 1.145 1.211Zm-6.445-2.423H9.27a1.209 1.209 0 0 0-1.144 1.212A1.215 1.215 0 0 0 9.27 24.03h1.312a1.209 1.209 0 0 0 1.145-1.211 1.215 1.215 0 0 0-1.145-1.212Zm23.282 11.319H17.027a1.208 1.208 0 0 0-1.145 1.211 1.215 1.215 0 0 0 1.145 1.212h16.837a1.208 1.208 0 0 0 1.21-1.214 1.215 1.215 0 0 0-1.21-1.213v.004Zm-23.282 0H9.27a1.208 1.208 0 0 0-1.144 1.211A1.215 1.215 0 0 0 9.27 35.35h1.312a1.208 1.208 0 0 0 1.21-1.214 1.215 1.215 0 0 0-1.21-1.213v.004ZM17.03 46.66h16.834a1.208 1.208 0 0 0 1.144-1.211 1.214 1.214 0 0 0-1.145-1.212H17.028a1.209 1.209 0 0 0-1.118 1.21 1.215 1.215 0 0 0 1.118 1.21l.003.003Zm-6.448-2.426H9.27a1.208 1.208 0 0 0-1.144 1.211 1.215 1.215 0 0 0 1.144 1.212h1.312a1.208 1.208 0 0 0 1.145-1.212 1.215 1.215 0 0 0-1.145-1.211Zm32.94 11.318H28.664a1.209 1.209 0 0 0-1.145 1.212 1.215 1.215 0 0 0 1.145 1.21h14.854a1.208 1.208 0 0 0 1.21-1.212 1.215 1.215 0 0 0-1.21-1.213l.004.003ZM17.03 57.976h5.192a1.208 1.208 0 0 0 1.145-1.212 1.215 1.215 0 0 0-1.145-1.21h-5.196a1.209 1.209 0 0 0-1.118 1.209 1.215 1.215 0 0 0 1.118 1.21l.003.003Zm-6.449-2.426H9.27a1.208 1.208 0 0 0-1.144 1.211 1.215 1.215 0 0 0 1.144 1.211h1.312a1.208 1.208 0 0 0 1.145-1.211 1.215 1.215 0 0 0-1.145-1.211Zm23.324 12.528a1.212 1.212 0 0 0 .745 1.117c.146.061.303.092.461.092h16.064a1.206 1.206 0 0 0 1.177-.732 1.215 1.215 0 0 0-1.177-1.69H35.11a1.202 1.202 0 0 0-1.116.749c-.06.147-.091.304-.09.464h.003Zm-16.875 1.21h11.64a1.208 1.208 0 0 0 1.145-1.212 1.214 1.214 0 0 0-1.145-1.212h-11.64a1.209 1.209 0 0 0-1.147 1.21 1.215 1.215 0 0 0 1.146 1.213Zm-6.449-2.424H9.27a1.209 1.209 0 0 0-1.144 1.212 1.215 1.215 0 0 0 1.144 1.211h1.312a1.209 1.209 0 0 0 1.145-1.211 1.215 1.215 0 0 0-1.145-1.212Zm49.86-28.296v19.083a18.41 18.41 0 0 1 7.803-6.977 18.35 18.35 0 0 1 10.332-1.587 1.208 1.208 0 0 1 1.21 1.21 17.975 17.975 0 0 1-.588 8.062 17.94 17.94 0 0 1-4.06 6.983 17.877 17.877 0 0 1-6.706 4.486 17.836 17.836 0 0 1-7.99 1.076v5.249a4.456 4.456 0 0 1-1.299 3.141 4.431 4.431 0 0 1-3.132 1.305H4.434a4.435 4.435 0 0 1-3.133-1.305A4.46 4.46 0 0 1 0 76.153V5.04a4.456 4.456 0 0 1 1.301-3.14A4.431 4.431 0 0 1 4.434.599h51.575c1.174.002 2.3.47 3.13 1.303a4.455 4.455 0 0 1 1.3 3.14v9.705a1.214 1.214 0 0 1-1.208 1.147 1.208 1.208 0 0 1-1.208-1.147V5.04c0-.535-.214-1.048-.591-1.426a2.012 2.012 0 0 0-1.423-.59H45.934v3.636a6.075 6.075 0 0 1-1.771 4.282 6.042 6.042 0 0 1-4.271 1.777H20.55a6.045 6.045 0 0 1-4.272-1.777 6.078 6.078 0 0 1-1.774-4.282V3.025H4.434c-.534 0-1.045.212-1.423.59-.378.378-.59.891-.591 1.426v71.112c0 .535.212 1.049.59 1.428s.89.591 1.424.591h51.575c.534 0 1.046-.212 1.424-.591.378-.379.59-.893.59-1.428v-21.41a17.836 17.836 0 0 1-7.989-1.077 17.88 17.88 0 0 1-6.705-4.486 17.94 17.94 0 0 1-4.059-6.983 17.975 17.975 0 0 1-.588-8.06 1.214 1.214 0 0 1 .744-1.121c.146-.061.304-.093.462-.093a18.346 18.346 0 0 1 10.334 1.588 18.404 18.404 0 0 1 7.801 6.979v-7.357a17.92 17.92 0 0 1 1.722-7.375 17.876 17.876 0 0 1 4.613-5.998 17.787 17.787 0 0 1 14.216-4 1.212 1.212 0 0 1 1.21 1.212 17.927 17.927 0 0 1-3.99 14.255 17.837 17.837 0 0 1-5.982 4.625 17.791 17.791 0 0 1-7.355 1.727l-2.014-.01Zm0-4.138 7.61-7.63a1.21 1.21 0 0 1 1.995 1.323c-.069.15-.167.283-.288.393l-7.605 7.63a15.153 15.153 0 0 0 6.253-1.294 15.19 15.19 0 0 0 5.17-3.757 15.27 15.27 0 0 0 3.79-11.927 15.129 15.129 0 0 0-11.787 3.69 15.206 15.206 0 0 0-3.766 5.08 15.243 15.243 0 0 0-1.378 6.177l.007.315Zm-19.34.906a15.265 15.265 0 0 0 3.79 11.928 15.189 15.189 0 0 0 5.17 3.756c1.97.87 4.101 1.311 6.254 1.293l-7.605-7.626a1.215 1.215 0 0 1 .86-2.055c.317-.003.622.12.85.34l7.606 7.626a15.267 15.267 0 0 0-1.292-6.268 15.227 15.227 0 0 0-3.745-5.183 15.15 15.15 0 0 0-11.891-3.801l.003-.01ZM16.932 6.66c0 .963.382 1.886 1.06 2.568a3.625 3.625 0 0 0 2.559 1.068h19.34c.962 0 1.884-.384 2.564-1.066a3.645 3.645 0 0 0 1.063-2.57V3.025H16.932v3.636Zm43.507 60.104 7.61-7.625a1.205 1.205 0 0 1 2.06.856c0 .32-.127.628-.354.855l-7.605 7.63a15.134 15.134 0 0 0 6.258-1.287 15.169 15.169 0 0 0 5.174-3.756 15.25 15.25 0 0 0 3.783-11.934H75.35A14.904 14.904 0 0 0 64.704 56a14.984 14.984 0 0 0-3.212 4.953 15.018 15.018 0 0 0-1.053 5.812Z" />
</svg>