<svg viewBox="0 0 80 81">
    <path
        d="M78.496 60.01a3.51 3.51 0 0 0-3.378-.453 3.506 3.506 0 0 0-1.51-3.856c-1.642-1.26-4.14-.184-8.278 1.597a77.42 77.42 0 0 1-9.696 3.598 5.87 5.87 0 0 0-4.828-2.507c-3.2.115-6.405.004-9.59-.333v-6.448h18.182a17.394 17.394 0 0 0 12.274-5.113A17.432 17.432 0 0 0 76.759 34.2a1.216 1.216 0 0 0-1.213-1.215H56.165c-3.022.004-5.99.798-8.613 2.303a17.371 17.371 0 0 0-6.336 6.277V19.221h18.182a17.394 17.394 0 0 0 12.274-5.113 17.432 17.432 0 0 0 5.087-12.295A1.219 1.219 0 0 0 75.56.6H56.166a17.394 17.394 0 0 0-12.283 5.107 17.431 17.431 0 0 0-5.092 12.3v7.38a17.37 17.37 0 0 0-6.334-6.285 17.347 17.347 0 0 0-8.615-2.31H4.446a1.216 1.216 0 0 0-1.213 1.215 17.428 17.428 0 0 0 5.091 12.302 17.39 17.39 0 0 0 12.284 5.106H38.79V57.61c-8.175-3.25-5.186-4.646-27.28-4.887L1.415 51.115A1.226 1.226 0 0 0 0 52.315v21.846a1.212 1.212 0 0 0 1.022 1.197l10.103 1.607C26.229 82.32 58.4 83.64 77.045 67.56c1.285-.743 5.02-4.727 1.45-7.55ZM62.61 8.698c-6.399-.283-16.066.138-20.276 3.612a14.975 14.975 0 0 1 5.492-6.735 14.951 14.951 0 0 1 8.304-2.546h18.153a14.992 14.992 0 0 1-4.768 9.791 14.961 14.961 0 0 1-10.131 3.973H41.478c1.242-2.922 6.83-5.666 14.687-5.666h6.445a1.213 1.213 0 0 0 1.213-1.214 1.215 1.215 0 0 0-1.213-1.215ZM20.608 32.985a14.968 14.968 0 0 1-10.132-3.973 15 15 0 0 1-4.77-9.79H23.84c2.959.008 5.849.895 8.304 2.548a14.98 14.98 0 0 1 5.492 6.736c-4.181-3.474-13.87-3.902-20.265-3.616a1.213 1.213 0 0 0-.816 2.049c.214.225.506.36.816.377h6.462c7.86 0 13.442 2.748 14.687 5.666l-17.913.003Zm-10.414 41.37-7.782-1.232V53.74l7.782 1.233v19.383Zm46.219-11.157c5.493-1.23 11.503-5.15 15.72-5.57 3.943 3.424-10.874 7.117-15.862 8.604a6.66 6.66 0 0 0 .142-3.034Zm-.248-27.784h18.118a14.996 14.996 0 0 1-4.769 9.79 14.965 14.965 0 0 1-10.13 3.974H41.478c1.242-2.92 6.83-5.665 14.687-5.665h6.445a1.213 1.213 0 0 0 .858-2.074 1.213 1.213 0 0 0-.858-.355c-6.395-.284-16.066.141-20.276 3.615a14.976 14.976 0 0 1 5.506-6.746 14.951 14.951 0 0 1 8.325-2.539ZM75.62 65.61C50.83 85.297 18.182 76.586 12.635 74.89V55.152c16.555.075 19.307 1.696 21.74 3.127 2.501 1.466 4.655 2.734 16.54 2.539a3.277 3.277 0 0 1 3.22 2.619c.102.491.09 1-.036 1.485 0 .354-.187 1.547-2.302 2.33-2.268.889-7.263 1.647-18.2.227a1.213 1.213 0 0 0-1.36 1.05 1.217 1.217 0 0 0 1.049 1.361c12.543 2.858 29.784-2.372 38.32-6.406 2.475-1.062 4.824-2.05 5.351-1.61 1.723 1.31-.552 3.076-1.355 3.735h.018Zm-69.313-7.68a1.212 1.212 0 0 1 1.213 1.214 1.215 1.215 0 0 1-1.213 1.215 1.213 1.213 0 0 1-1.213-1.215 1.215 1.215 0 0 1 1.213-1.215Z" />
</svg>