<svg viewBox="0 0 80 81">
    <path
        d="M21.819 16.357V11.51a2.848 2.848 0 0 0-2.828-2.831h-8.08a2.849 2.849 0 0 0-2.83 2.849v4.829a2.849 2.849 0 0 0 2.848 2.848h8.062a2.85 2.85 0 0 0 2.828-2.848Zm-11.314 0V11.51a.406.406 0 0 1 .406-.406h8.08a.406.406 0 0 1 .403.406v4.847a.406.406 0 0 1-.403.405h-8.08a.41.41 0 0 1-.406-.405Zm5.748 8.842a1.213 1.213 0 0 1 .9 2.094 1.214 1.214 0 0 1-.9.33H9.294a1.214 1.214 0 0 1 0-2.424h6.959Zm5.804 0h6.959a1.215 1.215 0 0 1 0 2.425h-6.959a1.214 1.214 0 0 1 0-2.425Zm12.763 2.425a1.214 1.214 0 0 1 0-2.425h6.962a1.214 1.214 0 0 1 0 2.425H34.82Zm19.725 0h-6.962a1.214 1.214 0 0 1 0-2.425h6.962a1.213 1.213 0 1 1 0 2.425Zm-32.139 6.969H9.294a1.213 1.213 0 1 1 0-2.425h13.112a1.215 1.215 0 0 1 0 2.425Zm7.066-2.425h18.396a1.215 1.215 0 0 1 0 2.425H29.472a1.214 1.214 0 0 1 0-2.425ZM50.507 8.665a5.206 5.206 0 0 0-3.376 1.253 5.235 5.235 0 1 0 0 8.002 5.246 5.246 0 1 0 3.376-9.26v.005Zm-6.738 8.083a2.85 2.85 0 0 1 0-5.658 2.837 2.837 0 0 1 0 5.672v-.014Zm6.738 0a2.824 2.824 0 0 1-1.92-.751 5.235 5.235 0 0 0 0-4.156 2.814 2.814 0 1 1 1.92 4.921v-.014ZM6.054 49.083c-3.045.356-6-1.068-6.054-4.444V5.043A4.448 4.448 0 0 1 4.444.599h54.952a4.448 4.448 0 0 1 4.444 4.444v30.704a1.214 1.214 0 0 1-2.425 0V5.043a2.019 2.019 0 0 0-2.02-2.02H4.445a2.02 2.02 0 0 0-2.02 2.02v39.596c.068 2.097 2.066 2.104 3.636 2.019a1.214 1.214 0 0 1-.007 2.425Zm72.728-9.697h-67.87A1.215 1.215 0 0 0 9.696 40.6v38.784A1.214 1.214 0 0 0 10.91 80.6H78.79A1.214 1.214 0 0 0 80 79.384V40.6a1.21 1.21 0 0 0-1.21-1.214h-.008Zm-1.214 38.788h-65.46V41.81H77.56l.007 36.363Zm-59.385-9.697a3.64 3.64 0 0 1 3.636 3.635 1.21 1.21 0 0 0 1.21 1.211h43.638a1.21 1.21 0 0 0 1.211-1.21 3.643 3.643 0 0 1 3.636-3.636 1.214 1.214 0 0 0 1.214-1.211V52.719a1.214 1.214 0 0 0-1.214-1.211 3.643 3.643 0 0 1-3.636-3.636 1.211 1.211 0 0 0-1.21-1.214H23.03a1.213 1.213 0 0 0-1.211 1.214 3.639 3.639 0 0 1-3.636 3.65 1.214 1.214 0 0 0-1.214 1.211V67.28a1.215 1.215 0 0 0 1.214 1.197Zm1.21-14.669a6.079 6.079 0 0 0 4.73-4.725h41.455a6.054 6.054 0 0 0 4.725 4.726v12.367a6.054 6.054 0 0 0-4.725 4.726H24.123a6.079 6.079 0 0 0-4.73-4.726V53.81Zm11.464 11.04a4.85 4.85 0 0 0 0-9.697 4.85 4.85 0 0 0 0 9.69v.007Zm0-7.272a2.425 2.425 0 0 1 0 4.847 2.425 2.425 0 0 1 0-4.847Zm28.282 7.272a4.85 4.85 0 0 0 0-9.697 4.85 4.85 0 0 0 0 9.69v.007Zm0-7.272a2.425 2.425 0 0 1 0 4.847 2.425 2.425 0 0 1 0-4.847ZM43.63 51.967c-.089-.897.065-2.069 1.211-2.069 1.147 0 1.3 1.168 1.211 2.066a4.91 4.91 0 0 1 3.493 2.849 1.215 1.215 0 0 1-2.236.94c-.862-2.311-5.153-1.749-5.089.776 0 1.528.855 2.272 2.621 2.272a4.669 4.669 0 1 1 1.211 9.259c.09.897-.068 2.062-1.21 2.066-1.144.003-1.3-1.172-1.212-2.07a4.908 4.908 0 0 1-3.475-2.848 1.212 1.212 0 0 1 2.233-.944c.861 2.315 5.156 1.748 5.092-.773 0-1.506-.887-2.272-2.639-2.272a4.669 4.669 0 0 1-1.21-9.259v.007Z" />
</svg>