<svg viewBox="0 0 80 81">
    <path
        d="M79.977 65.647a3.639 3.639 0 0 0-3.633-3.635c-.843.138-15.938-.354-16.143.386.644-.97.308-3.72.39-4.832a3.647 3.647 0 0 0-3.638-3.639c-.28.067-16.16-.198-15.753.227v-5.882h8.475A10.917 10.917 0 0 0 60.58 37.36a1.212 1.212 0 0 0-1.208-1.212h-9.697a10.887 10.887 0 0 0-8.475 4.057v-8.149a15.744 15.744 0 0 0 10.547-5.228A15.755 15.755 0 0 0 50.907 5a15.743 15.743 0 0 0-26.653 10.744 15.756 15.756 0 0 0 3.976 11.084 15.744 15.744 0 0 0 10.547 5.228v16.255a10.888 10.888 0 0 0-8.5-4.07h-9.679a1.211 1.211 0 0 0-1.211 1.211 10.917 10.917 0 0 0 10.905 10.909h8.5v5.878c.524-.429-15.555-.149-15.754-.223a3.636 3.636 0 0 0-3.633 3.635c.088 1.12-.259 3.851.386 4.832-.153-.754-15.357-.251-16.143-.386A3.636 3.636 0 0 0 0 73.73v3.234A3.643 3.643 0 0 0 3.634 80.6h14.542a3.597 3.597 0 0 0 2.422-.946 3.622 3.622 0 0 0 2.426.946h14.542a3.604 3.604 0 0 0 2.423-.946 3.611 3.611 0 0 0 2.422.946h14.542a3.604 3.604 0 0 0 2.423-.946 3.622 3.622 0 0 0 2.426.946h14.542a3.64 3.64 0 0 0 3.633-3.636c-.085-1.583.404-4.474-.945-5.668 1.339-1.17.874-4.064.945-5.648ZM49.675 38.575h8.408a8.504 8.504 0 0 1-8.397 7.274h-8.408a8.504 8.504 0 0 1 8.397-7.274ZM30.292 53.931a8.498 8.498 0 0 1-8.394-7.281h8.394a8.499 8.499 0 0 1 8.397 7.273l-8.397.008ZM19.39 76.96a1.216 1.216 0 0 1-1.214 1.212H3.634c-1.853-.025-1.063-2.86-1.208-4.447a1.212 1.212 0 0 1 1.208-1.212h14.542c1.856.029 1.052 2.863 1.215 4.447Zm19.387 0a1.215 1.215 0 0 1-1.21 1.212H23.02c-1.856-.025-1.063-2.856-1.212-4.447a1.216 1.216 0 0 1 1.212-1.212h14.542c1.855.029 1.04 2.863 1.214 4.447Zm0-8.082a1.215 1.215 0 0 1-1.21 1.212H23.02c-1.856-.025-1.063-2.863-1.212-4.446a1.215 1.215 0 0 1 1.212-1.209h14.542c1.855.025 1.04 2.86 1.214 4.443ZM26.657 16.35c0-3.537 1.405-6.929 3.905-9.43a13.328 13.328 0 0 1 22.757 9.43 13.328 13.328 0 1 1-26.662 0Zm31.521 60.613a1.215 1.215 0 0 1-1.214 1.212H42.41c-1.852-.025-1.045-2.859-1.211-4.446a1.216 1.216 0 0 1 1.211-1.212h14.542c1.856.025 1.048 2.863 1.215 4.447h.01Zm0-8.081a1.215 1.215 0 0 1-1.214 1.212H42.41c-1.852-.025-1.045-2.863-1.211-4.447a1.215 1.215 0 0 1 1.211-1.212h14.542c1.856.025 1.048 2.863 1.215 4.447h.01Zm0-8.082a1.215 1.215 0 0 1-1.214 1.212H42.41c-1.852-.025-1.045-2.863-1.211-4.446a1.212 1.212 0 0 1 1.211-1.212h14.542c1.856.025 1.048 2.86 1.215 4.446h.01Zm19.384 16.163a1.215 1.215 0 0 1-1.211 1.212H61.8c-1.855-.025-1.062-2.855-1.21-4.446a1.212 1.212 0 0 1 1.21-1.212h14.543c1.852.025 1.048 2.866 1.218 4.447Zm0-8.081a1.215 1.215 0 0 1-1.211 1.212H61.8c-1.855-.025-1.062-2.863-1.21-4.447a1.212 1.212 0 0 1 1.21-1.212h14.543c1.852.025 1.048 2.863 1.218 4.447Zm-32.52-49.046a4.777 4.777 0 0 1-3.846 4.55c.085.896-.067 2.062-1.214 2.065-1.148.004-1.3-1.169-1.212-2.065a4.9 4.9 0 0 1-3.474-2.835 1.212 1.212 0 0 1 2.231-.939c.864 2.307 5.157 1.744 5.093-.776 0-1.509-.889-2.274-2.638-2.274a4.663 4.663 0 0 1-5.022-4.043 4.667 4.667 0 0 1 3.81-5.2c-.088-.9.064-2.07 1.212-2.07 1.147 0 1.303 1.166 1.214 2.066 1.683.237 5.054 2.98 2.834 4.421a1.209 1.209 0 0 1-1.587-.648c-.86-2.31-5.157-1.743-5.093.776 0 1.53.86 2.274 2.624 2.274a4.58 4.58 0 0 1 5.069 4.698Zm-12.75-3.486a1.212 1.212 0 1 1-2.065-.862 1.218 1.218 0 0 1 2.08.862h-.014Zm16.583 1.212a1.21 1.21 0 1 1 0-2.421 1.21 1.21 0 0 1 0 2.42Z" />
</svg>