<svg viewBox="0 0 81 81">
    <path
        d="M78.84 39.386h-6.417a33.098 33.098 0 0 0-8.79-15.71L40.886.939a1.253 1.253 0 0 0-1.717 0L21.685 18.412c-.354 0-.708-.053-1.062-.053H1.214A1.213 1.213 0 0 0 0 19.569a20.585 20.585 0 0 0 8.577 16.705C-4.602 79.436 56.992 99.702 71.931 56.961a20.582 20.582 0 0 0 8.124-16.375 1.215 1.215 0 0 0-1.215-1.2ZM40.027 3.498l21.894 21.89a30.7 30.7 0 0 1 7.99 13.998H59.434A20.63 20.63 0 0 0 41.24 50.32V38.993a20.659 20.659 0 0 0-16.49-20.22L40.027 3.498ZM2.478 20.783H20.62a18.209 18.209 0 0 1 16.825 11.328c-5.044-4.623-16.156-4.16-23.285-4.05a1.214 1.214 0 0 0 0 2.425h9.695c7.384 0 13.707 3.229 14.78 7.278H20.62a18.216 18.216 0 0 1-18.142-16.98Zm59.47 48.387C38.49 91.981.796 68.374 10.701 37.64a20.51 20.51 0 0 0 9.912 2.55h18.195v32.754a1.215 1.215 0 1 0 2.425 0V61.216h18.195a20.452 20.452 0 0 0 9.203-2.191A30.585 30.585 0 0 1 61.92 69.17h.028ZM59.47 58.791H41.417c1.062-4.05 7.395-7.278 14.779-7.278h9.703a1.214 1.214 0 0 0 0-2.424c-7.101-.12-18.305-.563-23.3 4.046a18.205 18.205 0 0 1 16.829-11.328H77.58A18.22 18.22 0 0 1 59.435 58.79h.035ZM32.73 70.827a24.605 24.605 0 0 1-17.257-25.459 1.214 1.214 0 0 1 2.418.188 22.181 22.181 0 0 0 15.575 22.956 1.224 1.224 0 0 1-.772 2.322l.036-.007Z" />
</svg>