<svg xmlns="http://www.w3.org/2000/svg">
    <!-- Icon_1 -->
    <symbol id="icon1" viewBox="0 0 80 81">
        <path
            d="M79.977 65.647a3.639 3.639 0 0 0-3.633-3.635c-.843.138-15.938-.354-16.143.386.644-.97.308-3.72.39-4.832a3.647 3.647 0 0 0-3.638-3.639c-.28.067-16.16-.198-15.753.227v-5.882h8.475A10.917 10.917 0 0 0 60.58 37.36a1.212 1.212 0 0 0-1.208-1.212h-9.697a10.887 10.887 0 0 0-8.475 4.057v-8.149a15.744 15.744 0 0 0 10.547-5.228A15.755 15.755 0 0 0 50.907 5a15.743 15.743 0 0 0-26.653 10.744 15.756 15.756 0 0 0 3.976 11.084 15.744 15.744 0 0 0 10.547 5.228v16.255a10.888 10.888 0 0 0-8.5-4.07h-9.679a1.211 1.211 0 0 0-1.211 1.211 10.917 10.917 0 0 0 10.905 10.909h8.5v5.878c.524-.429-15.555-.149-15.754-.223a3.636 3.636 0 0 0-3.633 3.635c.088 1.12-.259 3.851.386 4.832-.153-.754-15.357-.251-16.143-.386A3.636 3.636 0 0 0 0 73.73v3.234A3.643 3.643 0 0 0 3.634 80.6h14.542a3.597 3.597 0 0 0 2.422-.946 3.622 3.622 0 0 0 2.426.946h14.542a3.604 3.604 0 0 0 2.423-.946 3.611 3.611 0 0 0 2.422.946h14.542a3.604 3.604 0 0 0 2.423-.946 3.622 3.622 0 0 0 2.426.946h14.542a3.64 3.64 0 0 0 3.633-3.636c-.085-1.583.404-4.474-.945-5.668 1.339-1.17.874-4.064.945-5.648ZM49.675 38.575h8.408a8.504 8.504 0 0 1-8.397 7.274h-8.408a8.504 8.504 0 0 1 8.397-7.274ZM30.292 53.931a8.498 8.498 0 0 1-8.394-7.281h8.394a8.499 8.499 0 0 1 8.397 7.273l-8.397.008ZM19.39 76.96a1.216 1.216 0 0 1-1.214 1.212H3.634c-1.853-.025-1.063-2.86-1.208-4.447a1.212 1.212 0 0 1 1.208-1.212h14.542c1.856.029 1.052 2.863 1.215 4.447Zm19.387 0a1.215 1.215 0 0 1-1.21 1.212H23.02c-1.856-.025-1.063-2.856-1.212-4.447a1.216 1.216 0 0 1 1.212-1.212h14.542c1.855.029 1.04 2.863 1.214 4.447Zm0-8.082a1.215 1.215 0 0 1-1.21 1.212H23.02c-1.856-.025-1.063-2.863-1.212-4.446a1.215 1.215 0 0 1 1.212-1.209h14.542c1.855.025 1.04 2.86 1.214 4.443ZM26.657 16.35c0-3.537 1.405-6.929 3.905-9.43a13.328 13.328 0 0 1 22.757 9.43 13.328 13.328 0 1 1-26.662 0Zm31.521 60.613a1.215 1.215 0 0 1-1.214 1.212H42.41c-1.852-.025-1.045-2.859-1.211-4.446a1.216 1.216 0 0 1 1.211-1.212h14.542c1.856.025 1.048 2.863 1.215 4.447h.01Zm0-8.081a1.215 1.215 0 0 1-1.214 1.212H42.41c-1.852-.025-1.045-2.863-1.211-4.447a1.215 1.215 0 0 1 1.211-1.212h14.542c1.856.025 1.048 2.863 1.215 4.447h.01Zm0-8.082a1.215 1.215 0 0 1-1.214 1.212H42.41c-1.852-.025-1.045-2.863-1.211-4.446a1.212 1.212 0 0 1 1.211-1.212h14.542c1.856.025 1.048 2.86 1.215 4.446h.01Zm19.384 16.163a1.215 1.215 0 0 1-1.211 1.212H61.8c-1.855-.025-1.062-2.855-1.21-4.446a1.212 1.212 0 0 1 1.21-1.212h14.543c1.852.025 1.048 2.866 1.218 4.447Zm0-8.081a1.215 1.215 0 0 1-1.211 1.212H61.8c-1.855-.025-1.062-2.863-1.21-4.447a1.212 1.212 0 0 1 1.21-1.212h14.543c1.852.025 1.048 2.863 1.218 4.447Zm-32.52-49.046a4.777 4.777 0 0 1-3.846 4.55c.085.896-.067 2.062-1.214 2.065-1.148.004-1.3-1.169-1.212-2.065a4.9 4.9 0 0 1-3.474-2.835 1.212 1.212 0 0 1 2.231-.939c.864 2.307 5.157 1.744 5.093-.776 0-1.509-.889-2.274-2.638-2.274a4.663 4.663 0 0 1-5.022-4.043 4.667 4.667 0 0 1 3.81-5.2c-.088-.9.064-2.07 1.212-2.07 1.147 0 1.303 1.166 1.214 2.066 1.683.237 5.054 2.98 2.834 4.421a1.209 1.209 0 0 1-1.587-.648c-.86-2.31-5.157-1.743-5.093.776 0 1.53.86 2.274 2.624 2.274a4.58 4.58 0 0 1 5.069 4.698Zm-12.75-3.486a1.212 1.212 0 1 1-2.065-.862 1.218 1.218 0 0 1 2.08.862h-.014Zm16.583 1.212a1.21 1.21 0 1 1 0-2.421 1.21 1.21 0 0 1 0 2.42Z" />
    </symbol>

    <!-- Icon_2 -->
    <symbol id="icon2" viewBox="0 0 80 81">
        <path
            d="M51.173 24.031h-20.9a1.209 1.209 0 0 1-1.145-1.211 1.214 1.214 0 0 1 1.145-1.212h20.9a1.208 1.208 0 0 1 1.275 1.212 1.217 1.217 0 0 1-.793 1.139 1.206 1.206 0 0 1-.482.072Zm-34.146 0h6.8a1.209 1.209 0 0 0 1.145-1.211 1.214 1.214 0 0 0-1.144-1.212h-6.801a1.209 1.209 0 0 0-1.145 1.212 1.215 1.215 0 0 0 1.145 1.211Zm-6.445-2.423H9.27a1.209 1.209 0 0 0-1.144 1.212A1.215 1.215 0 0 0 9.27 24.03h1.312a1.209 1.209 0 0 0 1.145-1.211 1.215 1.215 0 0 0-1.145-1.212Zm23.282 11.319H17.027a1.208 1.208 0 0 0-1.145 1.211 1.215 1.215 0 0 0 1.145 1.212h16.837a1.208 1.208 0 0 0 1.21-1.214 1.215 1.215 0 0 0-1.21-1.213v.004Zm-23.282 0H9.27a1.208 1.208 0 0 0-1.144 1.211A1.215 1.215 0 0 0 9.27 35.35h1.312a1.208 1.208 0 0 0 1.21-1.214 1.215 1.215 0 0 0-1.21-1.213v.004ZM17.03 46.66h16.834a1.208 1.208 0 0 0 1.144-1.211 1.214 1.214 0 0 0-1.145-1.212H17.028a1.209 1.209 0 0 0-1.118 1.21 1.215 1.215 0 0 0 1.118 1.21l.003.003Zm-6.448-2.426H9.27a1.208 1.208 0 0 0-1.144 1.211 1.215 1.215 0 0 0 1.144 1.212h1.312a1.208 1.208 0 0 0 1.145-1.212 1.215 1.215 0 0 0-1.145-1.211Zm32.94 11.318H28.664a1.209 1.209 0 0 0-1.145 1.212 1.215 1.215 0 0 0 1.145 1.21h14.854a1.208 1.208 0 0 0 1.21-1.212 1.215 1.215 0 0 0-1.21-1.213l.004.003ZM17.03 57.976h5.192a1.208 1.208 0 0 0 1.145-1.212 1.215 1.215 0 0 0-1.145-1.21h-5.196a1.209 1.209 0 0 0-1.118 1.209 1.215 1.215 0 0 0 1.118 1.21l.003.003Zm-6.449-2.426H9.27a1.208 1.208 0 0 0-1.144 1.211 1.215 1.215 0 0 0 1.144 1.211h1.312a1.208 1.208 0 0 0 1.145-1.211 1.215 1.215 0 0 0-1.145-1.211Zm23.324 12.528a1.212 1.212 0 0 0 .745 1.117c.146.061.303.092.461.092h16.064a1.206 1.206 0 0 0 1.177-.732 1.215 1.215 0 0 0-1.177-1.69H35.11a1.202 1.202 0 0 0-1.116.749c-.06.147-.091.304-.09.464h.003Zm-16.875 1.21h11.64a1.208 1.208 0 0 0 1.145-1.212 1.214 1.214 0 0 0-1.145-1.212h-11.64a1.209 1.209 0 0 0-1.147 1.21 1.215 1.215 0 0 0 1.146 1.213Zm-6.449-2.424H9.27a1.209 1.209 0 0 0-1.144 1.212 1.215 1.215 0 0 0 1.144 1.211h1.312a1.209 1.209 0 0 0 1.145-1.211 1.215 1.215 0 0 0-1.145-1.212Zm49.86-28.296v19.083a18.41 18.41 0 0 1 7.803-6.977 18.35 18.35 0 0 1 10.332-1.587 1.208 1.208 0 0 1 1.21 1.21 17.975 17.975 0 0 1-.588 8.062 17.94 17.94 0 0 1-4.06 6.983 17.877 17.877 0 0 1-6.706 4.486 17.836 17.836 0 0 1-7.99 1.076v5.249a4.456 4.456 0 0 1-1.299 3.141 4.431 4.431 0 0 1-3.132 1.305H4.434a4.435 4.435 0 0 1-3.133-1.305A4.46 4.46 0 0 1 0 76.153V5.04a4.456 4.456 0 0 1 1.301-3.14A4.431 4.431 0 0 1 4.434.599h51.575c1.174.002 2.3.47 3.13 1.303a4.455 4.455 0 0 1 1.3 3.14v9.705a1.214 1.214 0 0 1-1.208 1.147 1.208 1.208 0 0 1-1.208-1.147V5.04c0-.535-.214-1.048-.591-1.426a2.012 2.012 0 0 0-1.423-.59H45.934v3.636a6.075 6.075 0 0 1-1.771 4.282 6.042 6.042 0 0 1-4.271 1.777H20.55a6.045 6.045 0 0 1-4.272-1.777 6.078 6.078 0 0 1-1.774-4.282V3.025H4.434c-.534 0-1.045.212-1.423.59-.378.378-.59.891-.591 1.426v71.112c0 .535.212 1.049.59 1.428s.89.591 1.424.591h51.575c.534 0 1.046-.212 1.424-.591.378-.379.59-.893.59-1.428v-21.41a17.836 17.836 0 0 1-7.989-1.077 17.88 17.88 0 0 1-6.705-4.486 17.94 17.94 0 0 1-4.059-6.983 17.975 17.975 0 0 1-.588-8.06 1.214 1.214 0 0 1 .744-1.121c.146-.061.304-.093.462-.093a18.346 18.346 0 0 1 10.334 1.588 18.404 18.404 0 0 1 7.801 6.979v-7.357a17.92 17.92 0 0 1 1.722-7.375 17.876 17.876 0 0 1 4.613-5.998 17.787 17.787 0 0 1 14.216-4 1.212 1.212 0 0 1 1.21 1.212 17.927 17.927 0 0 1-3.99 14.255 17.837 17.837 0 0 1-5.982 4.625 17.791 17.791 0 0 1-7.355 1.727l-2.014-.01Zm0-4.138 7.61-7.63a1.21 1.21 0 0 1 1.995 1.323c-.069.15-.167.283-.288.393l-7.605 7.63a15.153 15.153 0 0 0 6.253-1.294 15.19 15.19 0 0 0 5.17-3.757 15.27 15.27 0 0 0 3.79-11.927 15.129 15.129 0 0 0-11.787 3.69 15.206 15.206 0 0 0-3.766 5.08 15.243 15.243 0 0 0-1.378 6.177l.007.315Zm-19.34.906a15.265 15.265 0 0 0 3.79 11.928 15.189 15.189 0 0 0 5.17 3.756c1.97.87 4.101 1.311 6.254 1.293l-7.605-7.626a1.215 1.215 0 0 1 .86-2.055c.317-.003.622.12.85.34l7.606 7.626a15.267 15.267 0 0 0-1.292-6.268 15.227 15.227 0 0 0-3.745-5.183 15.15 15.15 0 0 0-11.891-3.801l.003-.01ZM16.932 6.66c0 .963.382 1.886 1.06 2.568a3.625 3.625 0 0 0 2.559 1.068h19.34c.962 0 1.884-.384 2.564-1.066a3.645 3.645 0 0 0 1.063-2.57V3.025H16.932v3.636Zm43.507 60.104 7.61-7.625a1.205 1.205 0 0 1 2.06.856c0 .32-.127.628-.354.855l-7.605 7.63a15.134 15.134 0 0 0 6.258-1.287 15.169 15.169 0 0 0 5.174-3.756 15.25 15.25 0 0 0 3.783-11.934H75.35A14.904 14.904 0 0 0 64.704 56a14.984 14.984 0 0 0-3.212 4.953 15.018 15.018 0 0 0-1.053 5.812Z" />
    </symbol>

    <!-- Ivon_3 -->
    <symbol id="icon3" viewBox="0 0 80 81">
        <path
            d="M78.496 60.01a3.51 3.51 0 0 0-3.378-.453 3.506 3.506 0 0 0-1.51-3.856c-1.642-1.26-4.14-.184-8.278 1.597a77.42 77.42 0 0 1-9.696 3.598 5.87 5.87 0 0 0-4.828-2.507c-3.2.115-6.405.004-9.59-.333v-6.448h18.182a17.394 17.394 0 0 0 12.274-5.113A17.432 17.432 0 0 0 76.759 34.2a1.216 1.216 0 0 0-1.213-1.215H56.165c-3.022.004-5.99.798-8.613 2.303a17.371 17.371 0 0 0-6.336 6.277V19.221h18.182a17.394 17.394 0 0 0 12.274-5.113 17.432 17.432 0 0 0 5.087-12.295A1.219 1.219 0 0 0 75.56.6H56.166a17.394 17.394 0 0 0-12.283 5.107 17.431 17.431 0 0 0-5.092 12.3v7.38a17.37 17.37 0 0 0-6.334-6.285 17.347 17.347 0 0 0-8.615-2.31H4.446a1.216 1.216 0 0 0-1.213 1.215 17.428 17.428 0 0 0 5.091 12.302 17.39 17.39 0 0 0 12.284 5.106H38.79V57.61c-8.175-3.25-5.186-4.646-27.28-4.887L1.415 51.115A1.226 1.226 0 0 0 0 52.315v21.846a1.212 1.212 0 0 0 1.022 1.197l10.103 1.607C26.229 82.32 58.4 83.64 77.045 67.56c1.285-.743 5.02-4.727 1.45-7.55ZM62.61 8.698c-6.399-.283-16.066.138-20.276 3.612a14.975 14.975 0 0 1 5.492-6.735 14.951 14.951 0 0 1 8.304-2.546h18.153a14.992 14.992 0 0 1-4.768 9.791 14.961 14.961 0 0 1-10.131 3.973H41.478c1.242-2.922 6.83-5.666 14.687-5.666h6.445a1.213 1.213 0 0 0 1.213-1.214 1.215 1.215 0 0 0-1.213-1.215ZM20.608 32.985a14.968 14.968 0 0 1-10.132-3.973 15 15 0 0 1-4.77-9.79H23.84c2.959.008 5.849.895 8.304 2.548a14.98 14.98 0 0 1 5.492 6.736c-4.181-3.474-13.87-3.902-20.265-3.616a1.213 1.213 0 0 0-.816 2.049c.214.225.506.36.816.377h6.462c7.86 0 13.442 2.748 14.687 5.666l-17.913.003Zm-10.414 41.37-7.782-1.232V53.74l7.782 1.233v19.383Zm46.219-11.157c5.493-1.23 11.503-5.15 15.72-5.57 3.943 3.424-10.874 7.117-15.862 8.604a6.66 6.66 0 0 0 .142-3.034Zm-.248-27.784h18.118a14.996 14.996 0 0 1-4.769 9.79 14.965 14.965 0 0 1-10.13 3.974H41.478c1.242-2.92 6.83-5.665 14.687-5.665h6.445a1.213 1.213 0 0 0 .858-2.074 1.213 1.213 0 0 0-.858-.355c-6.395-.284-16.066.141-20.276 3.615a14.976 14.976 0 0 1 5.506-6.746 14.951 14.951 0 0 1 8.325-2.539ZM75.62 65.61C50.83 85.297 18.182 76.586 12.635 74.89V55.152c16.555.075 19.307 1.696 21.74 3.127 2.501 1.466 4.655 2.734 16.54 2.539a3.277 3.277 0 0 1 3.22 2.619c.102.491.09 1-.036 1.485 0 .354-.187 1.547-2.302 2.33-2.268.889-7.263 1.647-18.2.227a1.213 1.213 0 0 0-1.36 1.05 1.217 1.217 0 0 0 1.049 1.361c12.543 2.858 29.784-2.372 38.32-6.406 2.475-1.062 4.824-2.05 5.351-1.61 1.723 1.31-.552 3.076-1.355 3.735h.018Zm-69.313-7.68a1.212 1.212 0 0 1 1.213 1.214 1.215 1.215 0 0 1-1.213 1.215 1.213 1.213 0 0 1-1.213-1.215 1.215 1.215 0 0 1 1.213-1.215Z" />
    </symbol>

    <!-- Ivon_4 -->
    <symbol id="icon4" viewBox="0 0 81 81">
        <path
            d="M78.84 39.386h-6.417a33.098 33.098 0 0 0-8.79-15.71L40.886.939a1.253 1.253 0 0 0-1.717 0L21.685 18.412c-.354 0-.708-.053-1.062-.053H1.214A1.213 1.213 0 0 0 0 19.569a20.585 20.585 0 0 0 8.577 16.705C-4.602 79.436 56.992 99.702 71.931 56.961a20.582 20.582 0 0 0 8.124-16.375 1.215 1.215 0 0 0-1.215-1.2ZM40.027 3.498l21.894 21.89a30.7 30.7 0 0 1 7.99 13.998H59.434A20.63 20.63 0 0 0 41.24 50.32V38.993a20.659 20.659 0 0 0-16.49-20.22L40.027 3.498ZM2.478 20.783H20.62a18.209 18.209 0 0 1 16.825 11.328c-5.044-4.623-16.156-4.16-23.285-4.05a1.214 1.214 0 0 0 0 2.425h9.695c7.384 0 13.707 3.229 14.78 7.278H20.62a18.216 18.216 0 0 1-18.142-16.98Zm59.47 48.387C38.49 91.981.796 68.374 10.701 37.64a20.51 20.51 0 0 0 9.912 2.55h18.195v32.754a1.215 1.215 0 1 0 2.425 0V61.216h18.195a20.452 20.452 0 0 0 9.203-2.191A30.585 30.585 0 0 1 61.92 69.17h.028ZM59.47 58.791H41.417c1.062-4.05 7.395-7.278 14.779-7.278h9.703a1.214 1.214 0 0 0 0-2.424c-7.101-.12-18.305-.563-23.3 4.046a18.205 18.205 0 0 1 16.829-11.328H77.58A18.22 18.22 0 0 1 59.435 58.79h.035ZM32.73 70.827a24.605 24.605 0 0 1-17.257-25.459 1.214 1.214 0 0 1 2.418.188 22.181 22.181 0 0 0 15.575 22.956 1.224 1.224 0 0 1-.772 2.322l.036-.007Z" />
    </symbol>

    <!-- Ivon_5 -->
    <symbol id="icon5" viewBox="0 0 80 81">
        <path
            d="M21.819 16.357V11.51a2.848 2.848 0 0 0-2.828-2.831h-8.08a2.849 2.849 0 0 0-2.83 2.849v4.829a2.849 2.849 0 0 0 2.848 2.848h8.062a2.85 2.85 0 0 0 2.828-2.848Zm-11.314 0V11.51a.406.406 0 0 1 .406-.406h8.08a.406.406 0 0 1 .403.406v4.847a.406.406 0 0 1-.403.405h-8.08a.41.41 0 0 1-.406-.405Zm5.748 8.842a1.213 1.213 0 0 1 .9 2.094 1.214 1.214 0 0 1-.9.33H9.294a1.214 1.214 0 0 1 0-2.424h6.959Zm5.804 0h6.959a1.215 1.215 0 0 1 0 2.425h-6.959a1.214 1.214 0 0 1 0-2.425Zm12.763 2.425a1.214 1.214 0 0 1 0-2.425h6.962a1.214 1.214 0 0 1 0 2.425H34.82Zm19.725 0h-6.962a1.214 1.214 0 0 1 0-2.425h6.962a1.213 1.213 0 1 1 0 2.425Zm-32.139 6.969H9.294a1.213 1.213 0 1 1 0-2.425h13.112a1.215 1.215 0 0 1 0 2.425Zm7.066-2.425h18.396a1.215 1.215 0 0 1 0 2.425H29.472a1.214 1.214 0 0 1 0-2.425ZM50.507 8.665a5.206 5.206 0 0 0-3.376 1.253 5.235 5.235 0 1 0 0 8.002 5.246 5.246 0 1 0 3.376-9.26v.005Zm-6.738 8.083a2.85 2.85 0 0 1 0-5.658 2.837 2.837 0 0 1 0 5.672v-.014Zm6.738 0a2.824 2.824 0 0 1-1.92-.751 5.235 5.235 0 0 0 0-4.156 2.814 2.814 0 1 1 1.92 4.921v-.014ZM6.054 49.083c-3.045.356-6-1.068-6.054-4.444V5.043A4.448 4.448 0 0 1 4.444.599h54.952a4.448 4.448 0 0 1 4.444 4.444v30.704a1.214 1.214 0 0 1-2.425 0V5.043a2.019 2.019 0 0 0-2.02-2.02H4.445a2.02 2.02 0 0 0-2.02 2.02v39.596c.068 2.097 2.066 2.104 3.636 2.019a1.214 1.214 0 0 1-.007 2.425Zm72.728-9.697h-67.87A1.215 1.215 0 0 0 9.696 40.6v38.784A1.214 1.214 0 0 0 10.91 80.6H78.79A1.214 1.214 0 0 0 80 79.384V40.6a1.21 1.21 0 0 0-1.21-1.214h-.008Zm-1.214 38.788h-65.46V41.81H77.56l.007 36.363Zm-59.385-9.697a3.64 3.64 0 0 1 3.636 3.635 1.21 1.21 0 0 0 1.21 1.211h43.638a1.21 1.21 0 0 0 1.211-1.21 3.643 3.643 0 0 1 3.636-3.636 1.214 1.214 0 0 0 1.214-1.211V52.719a1.214 1.214 0 0 0-1.214-1.211 3.643 3.643 0 0 1-3.636-3.636 1.211 1.211 0 0 0-1.21-1.214H23.03a1.213 1.213 0 0 0-1.211 1.214 3.639 3.639 0 0 1-3.636 3.65 1.214 1.214 0 0 0-1.214 1.211V67.28a1.215 1.215 0 0 0 1.214 1.197Zm1.21-14.669a6.079 6.079 0 0 0 4.73-4.725h41.455a6.054 6.054 0 0 0 4.725 4.726v12.367a6.054 6.054 0 0 0-4.725 4.726H24.123a6.079 6.079 0 0 0-4.73-4.726V53.81Zm11.464 11.04a4.85 4.85 0 0 0 0-9.697 4.85 4.85 0 0 0 0 9.69v.007Zm0-7.272a2.425 2.425 0 0 1 0 4.847 2.425 2.425 0 0 1 0-4.847Zm28.282 7.272a4.85 4.85 0 0 0 0-9.697 4.85 4.85 0 0 0 0 9.69v.007Zm0-7.272a2.425 2.425 0 0 1 0 4.847 2.425 2.425 0 0 1 0-4.847ZM43.63 51.967c-.089-.897.065-2.069 1.211-2.069 1.147 0 1.3 1.168 1.211 2.066a4.91 4.91 0 0 1 3.493 2.849 1.215 1.215 0 0 1-2.236.94c-.862-2.311-5.153-1.749-5.089.776 0 1.528.855 2.272 2.621 2.272a4.669 4.669 0 1 1 1.211 9.259c.09.897-.068 2.062-1.21 2.066-1.144.003-1.3-1.172-1.212-2.07a4.908 4.908 0 0 1-3.475-2.848 1.212 1.212 0 0 1 2.233-.944c.861 2.315 5.156 1.748 5.092-.773 0-1.506-.887-2.272-2.639-2.272a4.669 4.669 0 0 1-1.21-9.259v.007Z" />
    </symbol>

    <!-- SOCIAL ICONS -->
    <!-- Instagrma -->
    <symbol id="instagram">
        <path d="M17.083 5.656a1.27 1.27 0 1 1 2.54.003 1.27 1.27 0 0 1-2.54-.003Z" />
        <path fill-rule="evenodd"
            d="M12 5.974A6.032 6.032 0 0 0 5.961 12 6.032 6.032 0 0 0 12 18.028 6.032 6.032 0 0 0 18.036 12a6.032 6.032 0 0 0-6.037-6.027ZM7.868 12a4.127 4.127 0 0 1 4.13-4.124A4.127 4.127 0 0 1 16.13 12 4.127 4.127 0 0 1 12 16.124a4.127 4.127 0 0 1-4.13-4.123Z"
            clip-rule="evenodd" />
        <path fill-rule="evenodd"
            d="M18.683.369a60.747 60.747 0 0 0-13.366 0C2.76.654.696 2.665.395 5.23a58.172 58.172 0 0 0 0 13.538c.3 2.566 2.365 4.577 4.922 4.862 4.406.492 8.96.492 13.366 0 2.557-.285 4.621-2.296 4.922-4.862.527-4.497.527-9.04 0-13.538-.3-2.566-2.365-4.577-4.922-4.862ZM5.529 2.26a58.839 58.839 0 0 1 12.942 0c1.69.189 3.044 1.52 3.24 3.192.51 4.35.51 8.745 0 13.095-.195 1.672-1.55 3.004-3.24 3.193a58.85 58.85 0 0 1-12.942 0c-1.69-.189-3.045-1.52-3.24-3.192-.51-4.35-.51-8.745 0-13.096.195-1.671 1.55-3.003 3.24-3.192Z"
            clip-rule="evenodd" />
    </symbol>

    <!-- Telegram -->
    <symbol id="telegram">
        <path fill-rule="evenodd"
            d="M5.913 14.537c.06.02.119.034.178.043a701.772 701.772 0 0 1 1.14 2.702c.679 1.623 1.362 3.295 1.514 3.773.186.592.384.994.6 1.269.111.142.24.266.391.36a1.187 1.187 0 0 0 .252.118 1.59 1.59 0 0 0 1.072.012 1.765 1.765 0 0 0 .411-.201l.006-.005 3.815-2.379 4.407 3.379c.065.05.136.091.211.124.53.231 1.042.312 1.524.246a2.331 2.331 0 0 0 1.148-.496 2.692 2.692 0 0 0 .761-.983l.013-.03.005-.01.002-.006v-.002l.002-.002c.023-.058.04-.118.053-.18L27.44 1.989c.012-.065.019-.13.019-.197 0-.594-.224-1.159-.75-1.501-.45-.293-.951-.306-1.268-.282-.341.026-.657.11-.868.178a4.63 4.63 0 0 0-.35.127l-.016.006-22.56 8.85-.004.002a3.095 3.095 0 0 0-.225.092c-.133.06-.32.155-.512.287-.307.21-1.012.785-.894 1.734.095.758.614 1.223.93 1.446.174.123.339.21.459.268.055.027.171.074.221.094l.013.005 4.277 1.44ZM24.997 2.184l-.003.001-.034.014L2.372 11.06a1.12 1.12 0 0 1-.035.013l-.013.005a1.523 1.523 0 0 0-.123.055 1.183 1.183 0 0 0 .116.057l4.242 1.428c.078.026.15.06.216.103l14.007-8.2.013-.008a2.741 2.741 0 0 1 .168-.09 2.77 2.77 0 0 1 .428-.178c.122-.038.482-.144.87-.02a1.152 1.152 0 0 1 .794.931c.055.202.047.401.004.573-.093.37-.354.66-.59.88a2397.3 2397.3 0 0 0-5.42 5.222l-3.526 3.403-.628.606 7.926 6.077c.182.065.29.062.34.055a.309.309 0 0 0 .156-.07.667.667 0 0 0 .14-.162l.002-.002 3.902-19.671a2.503 2.503 0 0 0-.361.116h-.003Zm-11.42 16.73L11.994 17.7l-.383 2.438 1.964-1.226Zm-3.033-3.619 1.573-1.518 3.526-3.403 1.313-1.267-8.8 5.152.046.112c.24.565.564 1.331.898 2.13.25.599.511 1.228.75 1.811l.381-2.43c.037-.234.151-.437.313-.586Z"
            clip-rule="evenodd" />
    </symbol>
    <!-- Viber -->
    <symbol id="viber">
        <path
            d="M7 4.98a.94.94 0 0 0-.615.121h-.016c-.43.252-.816.57-1.146.943-.274.317-.422.637-.462.946-.023.184-.007.368.048.544l.02.012c.308.907.711 1.78 1.204 2.6a15.302 15.302 0 0 0 2.323 3.177l.027.039.043.031.027.032.032.027c.957.91 2.027 1.695 3.184 2.334 1.321.72 2.123 1.06 2.605 1.201v.008c.14.043.27.062.398.062a1.84 1.84 0 0 0 1.103-.473c.371-.33.686-.718.932-1.15v-.007c.23-.434.152-.845-.18-1.123a13.87 13.87 0 0 0-2.152-1.545c-.512-.277-1.033-.11-1.243.172l-.45.567c-.23.282-.65.243-.65.243l-.012.007c-3.125-.798-3.958-3.962-3.958-3.962s-.04-.43.25-.65l.563-.453c.27-.219.457-.739.168-1.252a13.51 13.51 0 0 0-1.54-2.151.856.856 0 0 0-.505-.301l.001.001ZM12.28 3.605a.572.572 0 1 0 0 1.144c1.447 0 2.65.473 3.6 1.379.489.496.87 1.083 1.12 1.725.25.645.364 1.333.335 2.021a.572.572 0 1 0 1.143.049 6.13 6.13 0 0 0-.413-2.485 6.226 6.226 0 0 0-1.377-2.12l-.012-.012c-1.178-1.127-2.672-1.701-4.395-1.701Z" />
        <path
            d="M12.24 5.487a.572.572 0 0 0 0 1.144h.019c1.044.074 1.804.422 2.336.993.546.588.828 1.32.807 2.223a.572.572 0 0 0 1.144.027c.028-1.187-.354-2.211-1.112-3.029-.775-.832-1.837-1.271-3.117-1.357l-.02-.001h-.057Z" />
        <path
            d="M12.219 7.403a.572.572 0 1 0-.06 1.143c.479.025.784.169.976.362.193.195.337.507.364.996a.572.572 0 1 0 1.142-.062c-.037-.686-.252-1.293-.693-1.739-.442-.446-1.045-.664-1.729-.7Z" />
        <path fill-rule="evenodd"
            d="M5.972.61a25.346 25.346 0 0 1 11.058 0l.388.087a5.899 5.899 0 0 1 4.43 4.306 22.564 22.564 0 0 1 0 11.1 5.899 5.899 0 0 1-4.43 4.305l-.388.087a25.35 25.35 0 0 1-6.954.57L7.04 23.78a.858.858 0 0 1-1.419-.498l-.502-3a5.899 5.899 0 0 1-3.966-4.18 22.562 22.562 0 0 1 0-11.1A5.899 5.899 0 0 1 5.583.697L5.973.61Zm10.684 1.676a23.63 23.63 0 0 0-10.31 0l-.388.086a4.182 4.182 0 0 0-3.141 3.053 20.846 20.846 0 0 0 0 10.255 4.182 4.182 0 0 0 3.141 3.053l.103.023c.34.076.601.351.659.696l.337 2.011 2.142-1.917a.858.858 0 0 1 .633-.216c2.281.161 4.58-.009 6.824-.51l.388-.087a4.182 4.182 0 0 0 3.141-3.053c.854-3.365.854-6.89 0-10.255a4.182 4.182 0 0 0-3.141-3.053l-.388-.086Z"
            clip-rule="evenodd" />
    </symbol>
</svg>