<svg xmlns="http://www.w3.org/2000/svg" width="24" height="24" fill="none">
    <path fill="#000" d="M17.083 5.656a1.27 1.27 0 1 1 2.54.003 1.27 1.27 0 0 1-2.54-.003Z" />
    <path fill="#000" fill-rule="evenodd"
        d="M12 5.974A6.032 6.032 0 0 0 5.961 12 6.032 6.032 0 0 0 12 18.028 6.032 6.032 0 0 0 18.036 12a6.032 6.032 0 0 0-6.037-6.027ZM7.868 12a4.127 4.127 0 0 1 4.13-4.124A4.127 4.127 0 0 1 16.13 12 4.127 4.127 0 0 1 12 16.124a4.127 4.127 0 0 1-4.13-4.123Z"
        clip-rule="evenodd" />
    <path fill="#000" fill-rule="evenodd"
        d="M18.683.369a60.747 60.747 0 0 0-13.366 0C2.76.654.696 2.665.395 5.23a58.172 58.172 0 0 0 0 13.538c.3 2.566 2.365 4.577 4.922 4.862 4.406.492 8.96.492 13.366 0 2.557-.285 4.621-2.296 4.922-4.862.527-4.497.527-9.04 0-13.538-.3-2.566-2.365-4.577-4.922-4.862ZM5.529 2.26a58.839 58.839 0 0 1 12.942 0c1.69.189 3.044 1.52 3.24 3.192.51 4.35.51 8.745 0 13.095-.195 1.672-1.55 3.004-3.24 3.193a58.85 58.85 0 0 1-12.942 0c-1.69-.189-3.045-1.52-3.24-3.192-.51-4.35-.51-8.745 0-13.096.195-1.671 1.55-3.003 3.24-3.192Z"
        clip-rule="evenodd" />
</svg>