<svg xmlns="http://www.w3.org/2000/svg" width="28" height="24" fill="none">
    <path fill="#000" fill-rule="evenodd"
        d="M5.913 14.537c.06.02.119.034.178.043a701.772 701.772 0 0 1 1.14 2.702c.679 1.623 1.362 3.295 1.514 3.773.186.592.384.994.6 1.269.111.142.24.266.391.36a1.187 1.187 0 0 0 .252.118 1.59 1.59 0 0 0 1.072.012 1.765 1.765 0 0 0 .411-.201l.006-.005 3.815-2.379 4.407 3.379c.065.05.136.091.211.124.53.231 1.042.312 1.524.246a2.331 2.331 0 0 0 1.148-.496 2.692 2.692 0 0 0 .761-.983l.013-.03.005-.01.002-.006v-.002l.002-.002c.023-.058.04-.118.053-.18L27.44 1.989c.012-.065.019-.13.019-.197 0-.594-.224-1.159-.75-1.501-.45-.293-.951-.306-1.268-.282-.341.026-.657.11-.868.178a4.63 4.63 0 0 0-.35.127l-.016.006-22.56 8.85-.004.002a3.095 3.095 0 0 0-.225.092c-.133.06-.32.155-.512.287-.307.21-1.012.785-.894 1.734.095.758.614 1.223.93 1.446.174.123.339.21.459.268.055.027.171.074.221.094l.013.005 4.277 1.44ZM24.997 2.184l-.003.001-.034.014L2.372 11.06a1.12 1.12 0 0 1-.035.013l-.013.005a1.523 1.523 0 0 0-.123.055 1.183 1.183 0 0 0 .116.057l4.242 1.428c.078.026.15.06.216.103l14.007-8.2.013-.008a2.741 2.741 0 0 1 .168-.09 2.77 2.77 0 0 1 .428-.178c.122-.038.482-.144.87-.02a1.152 1.152 0 0 1 .794.931c.055.202.047.401.004.573-.093.37-.354.66-.59.88a2397.3 2397.3 0 0 0-5.42 5.222l-3.526 3.403-.628.606 7.926 6.077c.182.065.29.062.34.055a.309.309 0 0 0 .156-.07.667.667 0 0 0 .14-.162l.002-.002 3.902-19.671a2.503 2.503 0 0 0-.361.116h-.003Zm-11.42 16.73L11.994 17.7l-.383 2.438 1.964-1.226Zm-3.033-3.619 1.573-1.518 3.526-3.403 1.313-1.267-8.8 5.152.046.112c.24.565.564 1.331.898 2.13.25.599.511 1.228.75 1.811l.381-2.43c.037-.234.151-.437.313-.586Z"
        clip-rule="evenodd" />
</svg>