<svg xmlns="http://www.w3.org/2000/svg" width="23" height="24" fill="none">
    <path fill="#000"
        d="M7 4.98a.94.94 0 0 0-.615.121h-.016c-.43.252-.816.57-1.146.943-.274.317-.422.637-.462.946-.023.184-.007.368.048.544l.02.012c.308.907.711 1.78 1.204 2.6a15.302 15.302 0 0 0 2.323 3.177l.027.039.043.031.027.032.032.027c.957.91 2.027 1.695 3.184 2.334 1.321.72 2.123 1.06 2.605 1.201v.008c.14.043.27.062.398.062a1.84 1.84 0 0 0 1.103-.473c.371-.33.686-.718.932-1.15v-.007c.23-.434.152-.845-.18-1.123a13.87 13.87 0 0 0-2.152-1.545c-.512-.277-1.033-.11-1.243.172l-.45.567c-.23.282-.65.243-.65.243l-.012.007c-3.125-.798-3.958-3.962-3.958-3.962s-.04-.43.25-.65l.563-.453c.27-.219.457-.739.168-1.252a13.51 13.51 0 0 0-1.54-2.151.856.856 0 0 0-.505-.301l.001.001ZM12.28 3.605a.572.572 0 1 0 0 1.144c1.447 0 2.65.473 3.6 1.379.489.496.87 1.083 1.12 1.725.25.645.364 1.333.335 2.021a.572.572 0 1 0 1.143.049 6.13 6.13 0 0 0-.413-2.485 6.226 6.226 0 0 0-1.377-2.12l-.012-.012c-1.178-1.127-2.672-1.701-4.395-1.701Z" />
    <path fill="#000"
        d="M12.24 5.487a.572.572 0 0 0 0 1.144h.019c1.044.074 1.804.422 2.336.993.546.588.828 1.32.807 2.223a.572.572 0 0 0 1.144.027c.028-1.187-.354-2.211-1.112-3.029-.775-.832-1.837-1.271-3.117-1.357l-.02-.001h-.057Z" />
    <path fill="#000"
        d="M12.219 7.403a.572.572 0 1 0-.06 1.143c.479.025.784.169.976.362.193.195.337.507.364.996a.572.572 0 1 0 1.142-.062c-.037-.686-.252-1.293-.693-1.739-.442-.446-1.045-.664-1.729-.7Z" />
    <path fill="#000" fill-rule="evenodd"
        d="M5.972.61a25.346 25.346 0 0 1 11.058 0l.388.087a5.899 5.899 0 0 1 4.43 4.306 22.564 22.564 0 0 1 0 11.1 5.899 5.899 0 0 1-4.43 4.305l-.388.087a25.35 25.35 0 0 1-6.954.57L7.04 23.78a.858.858 0 0 1-1.419-.498l-.502-3a5.899 5.899 0 0 1-3.966-4.18 22.562 22.562 0 0 1 0-11.1A5.899 5.899 0 0 1 5.583.697L5.973.61Zm10.684 1.676a23.63 23.63 0 0 0-10.31 0l-.388.086a4.182 4.182 0 0 0-3.141 3.053 20.846 20.846 0 0 0 0 10.255 4.182 4.182 0 0 0 3.141 3.053l.103.023c.34.076.601.351.659.696l.337 2.011 2.142-1.917a.858.858 0 0 1 .633-.216c2.281.161 4.58-.009 6.824-.51l.388-.087a4.182 4.182 0 0 0 3.141-3.053c.854-3.365.854-6.89 0-10.255a4.182 4.182 0 0 0-3.141-3.053l-.388-.086Z"
        clip-rule="evenodd" />
</svg>